<svg width="640" height="640" xmlns="http://www.w3.org/2000/svg" xmlns:xlink="http://www.w3.org/1999/xlink">
 <!-- Created with SVG-edit - https://github.com/SVG-Edit/svgedit-->
 <defs>
  <symbol id="svg_73" viewBox="0 0 128 128" xmlns:xlink="http://www.w3.org/1999/xlink">
   <metadata id="svg_72">image/svg+xml</metadata>
   <defs>
    <filter height="1.29" id="svg_22" width="1.294" x="-0.147" y="-0.145">
     <feGaussianBlur id="svg_65" stdDeviation="1.81881"/>
    </filter>
    <filter id="svg_54">
     <feGaussianBlur id="svg_64" stdDeviation="2.58594"/>
    </filter>
   </defs>
   <path d="m20.09375,4.1185l0,118l88.84375,0l0,-86.15625l-0.59375,-0.625c0.21045,0.14439 0.41688,0.30216 0.625,0.4375l-30.875,-31.625c0.05654,0.0796 0.09993,0.1703 0.15625,0.25l-0.25,-0.28125l-57.90625,0z" filter="url(#svg_54)" id="svg_1" opacity="0.809"/>
   <path d="m21.03744,5.85263l0,114.12356l85.92512,0l0,-83.32591l-29.92116,-30.79765l-56.00396,0z" fill="url(#svg_53)" id="svg_2"/>
   <g id="svg_3" transform="matrix(1,0,0,1.3306886,0,-3.616907) ">
    <path d="m25.71875,10.9375l0,77.90625l74.71875,0l0,-58.90625l-2.21875,-2.28125l0,4.4375l-16,0l0,-4.875l15.59375,0l-2.15625,-2.21875l-13.4375,0l0,-4.875l8.6875,0l-8.9375,-9.1875l-56.25,0zm20.09375,9.1875l16,0l0,4.875l-16,0l0,-4.875zm18.09375,0l16,0l0,4.875l-16,0l0,-4.875zm-18.09375,7.09375l16,0l0,4.875l-16,0l0,-4.875zm18.09375,0l16,0l0,4.875l-16,0l0,-4.875zm-18.09375,6.90625l16,0l0,4.875l-16,0l0,-4.875zm18.09375,0l16,0l0,4.875l-16,0l0,-4.875zm18.3125,0l16,0l0,4.875l-16,0l0,-4.875zm-36.40625,6.8125l16,0l0,4.84375l-16,0l0,-4.84375zm18.09375,0l16,0l0,4.84375l-16,0l0,-4.84375zm18.3125,0l16,0l0,4.84375l-16,0l0,-4.84375zm-36.40625,7.09375l16,0l0,4.875l-16,0l0,-4.875zm18.09375,0l16,0l0,4.875l-16,0l0,-4.875zm18.3125,0l16,0l0,4.875l-16,0l0,-4.875zm-36.40625,6.6875l16,0l0,4.875l-16,0l0,-4.875zm18.09375,0l16,0l0,4.875l-16,0l0,-4.875zm18.3125,0l16,0l0,4.875l-16,0l0,-4.875zm-36.40625,6.8125l16,0l0,4.875l-16,0l0,-4.875zm18.09375,0l16,0l0,4.875l-16,0l0,-4.875zm18.3125,0l16,0l0,4.875l-16,0l0,-4.875zm-36.40625,6.90625l16,0l0,4.84375l-16,0l0,-4.84375zm18.09375,0l16,0l0,4.84375l-16,0l0,-4.84375zm18.3125,0l16,0l0,4.84375l-16,0l0,-4.84375zm-36.40625,6.78125l16,0l0,4.875l-16,0l0,-4.875zm18.09375,0l16,0l0,4.875l-16,0l0,-4.875zm18.3125,0l16,0l0,4.875l-16,0l0,-4.875zm-36.40625,6.8125l16,0l0,4.875l-16,0l0,-4.875zm18.09375,0l16,0l0,4.875l-16,0l0,-4.875zm18.3125,0l16,0l0,4.875l-16,0l0,-4.875z" fill="#888888" id="svg_52"/>
    <path d="m27.71875,12.9375l0,4.84375l16,0l0,-4.84375l-16,0z" fill="#bbbbbb" id="svg_51"/>
    <path d="m45.8125,12.9375l0,4.84375l16,0l0,-4.84375l-16,0z" fill="#bbbbbb" id="svg_50"/>
    <path d="m63.90625,12.9375l0,4.84375l16,0l0,-4.84375l-16,0z" fill="#bbbbbb" id="svg_49"/>
    <path d="m82.21875,12.9375l0,4.84375l6.40625,0l-4.6875,-4.84375l-1.71875,0z" fill="#bbbbbb" id="svg_48"/>
    <path d="m27.71875,20.125l0,4.875l16,0l0,-4.875l-16,0z" fill="#bbbbbb" id="svg_47"/>
    <path d="m27.71875,27.21875l0,4.875l16,0l0,-4.875l-16,0z" fill="#bbbbbb" id="svg_46"/>
    <path d="m27.71875,34.125l0,4.875l16,0l0,-4.875l-16,0z" fill="#bbbbbb" id="svg_45"/>
    <path d="m27.71875,40.9375l0,4.84375l16,0l0,-4.84375l-16,0z" fill="#bbbbbb" id="svg_44"/>
    <path d="m27.71875,48.03125l0,4.875l16,0l0,-4.875l-16,0z" fill="#bbbbbb" id="svg_43"/>
    <path d="m27.71875,54.71875l0,4.875l16,0l0,-4.875l-16,0z" fill="#bbbbbb" id="svg_42"/>
    <path d="m27.71875,61.53125l0,4.875l16,0l0,-4.875l-16,0z" fill="#bbbbbb" id="svg_41"/>
    <path d="m27.71875,68.4375l0,4.84375l16,0l0,-4.84375l-16,0z" fill="#bbbbbb" id="svg_40"/>
    <path d="m27.71875,75.21875l0,4.875l16,0l0,-4.875l-16,0z" fill="#bbbbbb" id="svg_39"/>
    <path d="m27.71875,82.03125l0,4.875l16,0l0,-4.875l-16,0z" fill="#bbbbbb" id="svg_38"/>
    <g fill="#323232" id="svg_36">
     <path d="m34.39141,24.52497l0,-0.5822l0.97218,0l0,-2.67697l-0.94154,0.58776l0,-0.61562l0.98332,-0.6379l0.74097,0l0,3.34273l0.89976,0l0,0.5822l-2.65469,0" id="svg_37"/>
    </g>
    <g fill="#323232" id="svg_34">
     <path d="m34.34544,31.64796l0,-0.54319c0.08914,-0.19499 0.19778,-0.37049 0.32592,-0.52648c0.12814,-0.15785 0.26184,-0.30177 0.40113,-0.43177c0.14113,-0.13185 0.28041,-0.25349 0.41784,-0.36492c0.13928,-0.11328 0.2637,-0.22191 0.37327,-0.32591c0.11142,-0.10586 0.20149,-0.21171 0.27021,-0.31756c0.06871,-0.10585 0.10306,-0.21821 0.10306,-0.33706c0,-0.17457 -0.04364,-0.30363 -0.13092,-0.3872c-0.08729,-0.08357 -0.21542,-0.12535 -0.38442,-0.12536c-0.16713,0.00001 -0.29527,0.0455 -0.38441,0.1365c-0.08728,0.08914 -0.14392,0.22378 -0.16992,0.40391l-0.78833,-0.04457c0.01857,-0.15413 0.05664,-0.29898 0.11421,-0.43455c0.05757,-0.13557 0.13928,-0.25442 0.24513,-0.35656c0.10771,-0.10214 0.24142,-0.18199 0.40113,-0.23957c0.16157,-0.05942 0.35377,-0.08913 0.57662,-0.08914c0.21171,0.00001 0.39927,0.02507 0.5627,0.07521c0.16342,0.04829 0.30084,0.11979 0.41227,0.2145c0.11142,0.09471 0.19592,0.21078 0.25349,0.3482c0.05757,0.13557 0.08635,0.29063 0.08635,0.4652c0,0.18385 -0.03622,0.35006 -0.10864,0.49862c-0.07243,0.14857 -0.16528,0.28599 -0.27856,0.41227c-0.11329,0.12443 -0.23957,0.24142 -0.37884,0.35099c-0.13743,0.10957 -0.27114,0.21635 -0.40113,0.32034c-0.13,0.104 -0.24885,0.20893 -0.35656,0.31478c-0.10586,0.10585 -0.18478,0.21914 -0.23678,0.33984l1.82179,0l0,0.64348l-2.74661,0" id="svg_35"/>
    </g>
    <g fill="#323232" id="svg_33">
     <path d="m37.13663,37.46504c-0.00001,0.17828 -0.02972,0.33892 -0.08914,0.48191c-0.05757,0.14114 -0.14486,0.26185 -0.26185,0.36213c-0.117,0.10028 -0.26278,0.17735 -0.43734,0.23121c-0.17271,0.052 -0.37421,0.078 -0.60448,0.078c-0.25628,0 -0.47263,-0.0325 -0.64905,-0.0975c-0.17457,-0.065 -0.31849,-0.15043 -0.43177,-0.25628c-0.11142,-0.10771 -0.19592,-0.22935 -0.25349,-0.36492c-0.05571,-0.13556 -0.09193,-0.27299 -0.10864,-0.41227l0.79669,-0.06964c0.01114,0.08357 0.03157,0.16064 0.06128,0.23121c0.03157,0.06871 0.07335,0.12814 0.12535,0.17828c0.052,0.05014 0.11514,0.08914 0.18942,0.11699c0.07614,0.026 0.16528,0.039 0.26742,0.039c0.18756,0 0.33334,-0.04643 0.43734,-0.13928c0.104,-0.09285 0.15599,-0.23492 0.156,-0.4262c-0.00001,-0.11699 -0.02507,-0.21077 -0.07521,-0.28134c-0.04829,-0.07057 -0.1105,-0.12442 -0.18664,-0.16157c-0.07428,-0.039 -0.15507,-0.065 -0.24235,-0.078c-0.08728,-0.013 -0.16992,-0.0195 -0.24792,-0.0195l-0.27299,0l0,-0.63233l0.25628,0c0.078,0 0.15692,-0.0074 0.23677,-0.02228c0.08171,-0.01485 0.15507,-0.04178 0.22007,-0.08078c0.06499,-0.039 0.11792,-0.09285 0.15878,-0.16157c0.04085,-0.07057 0.06128,-0.1597 0.06128,-0.26742c0,-0.16156 -0.0455,-0.28784 -0.1365,-0.37884c-0.08914,-0.09285 -0.22006,-0.13928 -0.39277,-0.13928c-0.16156,0 -0.29249,0.04457 -0.39277,0.13371c-0.09843,0.08914 -0.15507,0.21542 -0.16992,0.37884l-0.78276,-0.05571c0.02228,-0.18385 0.07243,-0.34355 0.15042,-0.47912c0.07985,-0.13557 0.17921,-0.24792 0.29806,-0.33706c0.12071,-0.08914 0.25907,-0.15507 0.41506,-0.19778c0.15599,-0.04457 0.32127,-0.06685 0.49584,-0.06685c0.23028,0 0.42805,0.02786 0.59334,0.08357c0.16527,0.05572 0.30084,0.13093 0.4067,0.22563c0.10585,0.09471 0.18384,0.20521 0.23399,0.33149c0.05014,0.12629 0.07521,0.26092 0.07521,0.40392c-0.00001,0.11514 -0.01672,0.22285 -0.05014,0.32313c-0.03343,0.09843 -0.0845,0.18756 -0.15321,0.26742c-0.06686,0.078 -0.15321,0.14578 -0.25906,0.20335c-0.10586,0.05571 -0.23121,0.0975 -0.37606,0.12535l0,0.01114c0.16156,0.01857 0.30177,0.05571 0.42063,0.11142c0.11885,0.05386 0.21634,0.12164 0.29249,0.20335c0.07614,0.08171 0.13278,0.17457 0.16992,0.27856c0.03714,0.10214 0.05571,0.21078 0.05571,0.32592" id="svg_9"/>
    </g>
    <g fill="#323232" id="svg_32">
     <path d="m36.72297,44.55162l0,0.79947l-0.74655,0l0,-0.79947l-1.78558,0l0,-0.58777l1.65744,-2.53769l0.87469,0l0,2.54326l0.52369,0l0,0.5822l-0.52369,0m-0.74655,-1.86636c0,-0.03157 0,-0.07242 0,-0.12257c0.0019,-0.052 0.0037,-0.10492 0.0056,-0.15878c0.0037,-0.05385 0.0065,-0.10492 0.0084,-0.15321c0.0037,-0.05014 0.0074,-0.08914 0.01114,-0.11699c-0.0093,0.02043 -0.02414,0.05014 -0.04457,0.08914c-0.02043,0.03715 -0.04364,0.078 -0.06964,0.12256c-0.02414,0.04272 -0.05014,0.08543 -0.078,0.12814c-0.026,0.04272 -0.04921,0.07986 -0.06964,0.11143l-0.9109,1.38445l1.14768,0l0,-1.28417" id="svg_10"/>
    </g>
    <g fill="#323232" id="svg_31">
     <path d="m37.13802,51.15401c0,0.19685 -0.03157,0.37885 -0.09471,0.54598c-0.06129,0.16528 -0.15321,0.3092 -0.27578,0.43177c-0.12257,0.12071 -0.27485,0.21542 -0.45684,0.28413c-0.18014,0.06686 -0.38906,0.10029 -0.62676,0.10029c-0.21914,0 -0.41042,-0.026 -0.57384,-0.078c-0.16342,-0.05386 -0.30177,-0.12721 -0.41505,-0.22007c-0.11143,-0.09471 -0.19964,-0.2052 -0.26464,-0.33149c-0.06314,-0.12628 -0.10678,-0.26184 -0.13092,-0.4067l0.78276,-0.06407c0.01486,0.06129 0.03528,0.12072 0.06128,0.17828c0.02785,0.05757 0.06593,0.10864 0.11421,0.15321c0.04828,0.04457 0.1077,0.08078 0.17828,0.10864c0.07056,0.026 0.15599,0.039 0.25627,0.039c0.19499,0 0.35006,-0.06221 0.4652,-0.18663c0.11699,-0.12443 0.17549,-0.30364 0.17549,-0.53763c0,-0.10399 -0.01486,-0.19778 -0.04457,-0.28135c-0.02786,-0.08357 -0.06871,-0.15506 -0.12256,-0.21449c-0.052,-0.05942 -0.117,-0.10492 -0.195,-0.13649c-0.07614,-0.03157 -0.16342,-0.04735 -0.26184,-0.04735c-0.13,0 -0.23678,0.02507 -0.32035,0.07521c-0.08357,0.04829 -0.15414,0.10771 -0.21171,0.17828l-0.76325,0l0.13649,-2.20899l2.35942,0l0,0.58219l-1.64909,0l-0.06407,0.99168c0.078,-0.06871 0.17642,-0.12721 0.29528,-0.1755c0.11885,-0.05014 0.2572,-0.07521 0.41505,-0.07521c0.19314,0.00001 0.36585,0.03157 0.51813,0.09471c0.15228,0.06314 0.28134,0.15136 0.3872,0.26464c0.10585,0.11328 0.18663,0.24978 0.24235,0.40948c0.05571,0.15786 0.08357,0.33335 0.08357,0.52648" id="svg_11"/>
    </g>
    <g fill="#323232" id="svg_30">
     <path d="m37.09763,57.8638c0,0.19685 -0.02786,0.37791 -0.08357,0.54319c-0.05571,0.16342 -0.13928,0.30456 -0.2507,0.42341c-0.10957,0.117 -0.247,0.20893 -0.41228,0.27578c-0.16528,0.065 -0.35656,0.0975 -0.57383,0.0975c-0.46241,0 -0.81804,-0.16157 -1.06689,-0.4847c-0.24699,-0.32498 -0.37049,-0.80597 -0.37049,-1.44294c0,-0.70012 0.12535,-1.2266 0.37606,-1.57945c0.25256,-0.3547 0.61283,-0.53205 1.08082,-0.53205c0.15599,0 0.29806,0.01672 0.4262,0.05014c0.12813,0.03157 0.24234,0.08357 0.34263,0.15599c0.10028,0.07243 0.1857,0.16622 0.25627,0.28135c0.07057,0.11329 0.12721,0.25164 0.16993,0.41506l-0.73819,0.10306c-0.03714,-0.13742 -0.0975,-0.23584 -0.18107,-0.29527c-0.08357,-0.06128 -0.18106,-0.09192 -0.29249,-0.09192c-0.20985,0 -0.37513,0.10493 -0.49584,0.31477c-0.11885,0.20986 -0.17828,0.52834 -0.17827,0.95547c0.08357,-0.13928 0.19963,-0.24606 0.3482,-0.32035c0.14856,-0.07428 0.31663,-0.11142 0.50419,-0.11142c0.17271,0 0.3287,0.02879 0.46799,0.08635c0.14113,0.05571 0.26091,0.13743 0.35934,0.24513c0.10028,0.10586 0.17735,0.23585 0.23121,0.38999c0.05385,0.15414 0.08078,0.32778 0.08078,0.52091m-0.78555,0.02228c0,-0.10585 -0.01207,-0.20056 -0.03621,-0.28413c-0.02415,-0.08542 -0.06129,-0.15785 -0.11142,-0.21728c-0.04829,-0.05942 -0.10864,-0.10492 -0.18107,-0.13649c-0.07243,-0.03343 -0.15599,-0.05014 -0.2507,-0.05014c-0.06871,0 -0.13743,0.01114 -0.20614,0.03343c-0.06871,0.02229 -0.12999,0.0585 -0.18385,0.10863c-0.05386,0.04829 -0.0975,0.1105 -0.13092,0.18664c-0.03343,0.07614 -0.05014,0.16807 -0.05014,0.27578c0,0.11142 0.01393,0.21542 0.04178,0.31199c0.02786,0.09657 0.06685,0.18106 0.11699,0.25349c0.052,0.07057 0.11421,0.12628 0.18664,0.16713c0.07243,0.039 0.15414,0.0585 0.24513,0.0585c0.17643,0 0.31385,-0.06221 0.41228,-0.18663c0.09842,-0.12628 0.14763,-0.29992 0.14763,-0.52091" id="svg_12"/>
    </g>
    <g fill="#323232" id="svg_29">
     <path d="m37.05724,62.65673c-0.17643,0.27856 -0.34356,0.54877 -0.50141,0.81061c-0.156,0.26185 -0.29249,0.52556 -0.40949,0.79111c-0.117,0.26371 -0.20985,0.53577 -0.27856,0.81619c-0.06686,0.27856 -0.10028,0.57384 -0.10028,0.88582l-0.81619,0c0,-0.31013 0.03621,-0.60447 0.10864,-0.88303c0.07428,-0.28042 0.17457,-0.55341 0.30085,-0.81898c0.12628,-0.26556 0.27299,-0.5274 0.44012,-0.78554c0.16714,-0.25999 0.34356,-0.52462 0.52927,-0.7939l-1.94993,0l0,-0.64347l2.67698,0l0,0.62119" id="svg_13"/>
    </g>
    <g fill="#323232" id="svg_28">
     <path d="m37.12688,71.7452c0,0.169 -0.02786,0.32499 -0.08357,0.46798c-0.05572,0.14114 -0.14114,0.26371 -0.25628,0.3677c-0.11514,0.10214 -0.26092,0.182 -0.43734,0.23957c-0.17642,0.05757 -0.38627,0.08635 -0.62955,0.08635c-0.24142,0 -0.45127,-0.02878 -0.62955,-0.08635c-0.17642,-0.05757 -0.32313,-0.13743 -0.44012,-0.23957c-0.11514,-0.10399 -0.20057,-0.22656 -0.25628,-0.3677c-0.05571,-0.14113 -0.08357,-0.29527 -0.08357,-0.46241c0,-0.14299 0.02229,-0.26927 0.06686,-0.37884c0.04457,-0.11142 0.104,-0.20706 0.17828,-0.28692c0.07428,-0.07985 0.15971,-0.14299 0.25628,-0.18942c0.09657,-0.04828 0.19592,-0.08078 0.29806,-0.0975l0,-0.01114c-0.10957,-0.02414 -0.208,-0.06407 -0.29528,-0.11978c-0.08728,-0.05571 -0.16156,-0.12257 -0.22285,-0.20057c-0.06128,-0.078 -0.10864,-0.16435 -0.14206,-0.25906c-0.03157,-0.09656 -0.04736,-0.19685 -0.04735,-0.30085c0,-0.15599 0.02786,-0.29805 0.08357,-0.42619c0.05757,-0.12814 0.14113,-0.23771 0.2507,-0.32871c0.10957,-0.09099 0.24514,-0.16063 0.4067,-0.20892c0.16342,-0.05014 0.35192,-0.07521 0.56548,-0.07521c0.22842,0.00001 0.42527,0.026 0.59055,0.078c0.16714,0.05015 0.30456,0.12164 0.41227,0.21449c0.10771,0.091 0.18756,0.20057 0.23956,0.32871c0.052,0.12814 0.078,0.26928 0.078,0.42341c0,0.10214 -0.01672,0.2015 -0.05014,0.29806c-0.03157,0.09471 -0.078,0.18107 -0.13928,0.25906c-0.06129,0.078 -0.13649,0.14393 -0.22563,0.19778c-0.08729,0.05386 -0.18664,0.09193 -0.29806,0.11421l0,0.01114c0.11514,0.01857 0.22192,0.05293 0.32034,0.10307c0.10028,0.04828 0.18664,0.11235 0.25907,0.19221c0.07242,0.078 0.12906,0.17271 0.16992,0.28413c0.04085,0.10957 0.06128,0.23399 0.06128,0.37327m-0.90254,-1.79115c0,-0.07799 -0.0084,-0.14949 -0.02507,-0.21449c-0.01672,-0.06685 -0.04457,-0.12349 -0.08357,-0.16992c-0.039,-0.04828 -0.09193,-0.08542 -0.15878,-0.11143c-0.065,-0.02785 -0.14764,-0.04178 -0.24792,-0.04178c-0.09657,0 -0.17735,0.01393 -0.24235,0.04178c-0.065,0.026 -0.117,0.06314 -0.15599,0.11143c-0.039,0.04643 -0.06686,0.10307 -0.08357,0.16992c-0.01671,0.065 -0.02507,0.1365 -0.02507,0.21449c0,0.06871 0.0065,0.1365 0.0195,0.20335c0.01486,0.06686 0.04086,0.12721 0.078,0.18107c0.03714,0.052 0.08914,0.09471 0.15599,0.12813c0.06685,0.03343 0.15321,0.05014 0.25906,0.05014c0.11143,0.00001 0.20057,-0.01671 0.26742,-0.05014c0.06871,-0.03343 0.12071,-0.07707 0.156,-0.13092c0.03528,-0.05385 0.0585,-0.11421 0.06964,-0.18106c0.01114,-0.06685 0.01671,-0.13371 0.01671,-0.20057m0.09193,1.72708c0,-0.07985 -0.0093,-0.15692 -0.02786,-0.2312c-0.01672,-0.07428 -0.04829,-0.13928 -0.09471,-0.195c-0.04457,-0.05757 -0.10679,-0.10306 -0.18664,-0.13649c-0.07986,-0.03528 -0.18106,-0.05293 -0.30363,-0.05293c-0.11143,0 -0.20521,0.01764 -0.28135,0.05293c-0.07428,0.03343 -0.13464,0.07893 -0.18106,0.13649c-0.04457,0.05757 -0.07707,0.12443 -0.0975,0.20057c-0.01857,0.07428 -0.02786,0.15321 -0.02786,0.23677c0,0.09843 0.0093,0.1885 0.02786,0.27021c0.02043,0.08171 0.05385,0.15228 0.10028,0.21171c0.04828,0.05757 0.11142,0.10214 0.18942,0.13371c0.078,0.03157 0.17549,0.04736 0.29249,0.04735c0.11699,0 0.21356,-0.01578 0.2897,-0.04735c0.07614,-0.03343 0.1365,-0.07985 0.18107,-0.13929c0.04457,-0.05943 0.07521,-0.12999 0.09193,-0.2117c0.01857,-0.08357 0.02785,-0.17549 0.02786,-0.27578" id="svg_14"/>
    </g>
    <g fill="#323232" id="svg_27">
     <path d="m37.10041,77.62282c0,0.69641 -0.12721,1.21732 -0.38163,1.56273c-0.25442,0.34542 -0.61562,0.51813 -1.0836,0.51813c-0.169,0 -0.32128,-0.01764 -0.45684,-0.05293c-0.13371,-0.03528 -0.25071,-0.09007 -0.35099,-0.16435c-0.10028,-0.07428 -0.18571,-0.16993 -0.25627,-0.28692c-0.06871,-0.117 -0.1235,-0.25628 -0.16436,-0.41784l0.73541,-0.10307c0.03714,0.13928 0.0975,0.24235 0.18106,0.3092c0.08542,0.06686 0.19221,0.10028 0.32035,0.10028c0.10585,0 0.20056,-0.02507 0.28413,-0.07521c0.08357,-0.05014 0.15506,-0.12628 0.21449,-0.22842c0.05942,-0.10214 0.10492,-0.2312 0.1365,-0.3872c0.03343,-0.15785 0.05107,-0.34356 0.05293,-0.55712c-0.03714,0.07243 -0.08636,0.1365 -0.14764,0.19221c-0.06129,0.05571 -0.13093,0.10214 -0.20892,0.13928c-0.07614,0.03714 -0.15786,0.06593 -0.24514,0.08635c-0.08728,0.01857 -0.17549,0.02786 -0.26463,0.02786c-0.17085,0 -0.32592,-0.02971 -0.4652,-0.08914c-0.13928,-0.06128 -0.25813,-0.14857 -0.35656,-0.26185c-0.09842,-0.11328 -0.17456,-0.24978 -0.22842,-0.40949c-0.052,-0.16156 -0.078,-0.34355 -0.078,-0.54598c0,-0.20799 0.03064,-0.39369 0.09193,-0.55712c0.06314,-0.16342 0.15321,-0.30084 0.27021,-0.41227c0.11699,-0.11328 0.25999,-0.1987 0.42898,-0.25628c0.17085,-0.05942 0.36399,-0.08913 0.57941,-0.08914c0.22656,0.00001 0.4262,0.039 0.59891,0.117c0.17456,0.07614 0.32034,0.195 0.43734,0.35656c0.11699,0.15971 0.2052,0.36306 0.26463,0.61005c0.06128,0.24513 0.09192,0.53669 0.09193,0.87468m-0.82733,-0.54877c0,-0.11142 -0.013,-0.21541 -0.039,-0.31198c-0.02414,-0.09842 -0.06129,-0.18292 -0.11142,-0.2535c-0.05014,-0.07242 -0.11143,-0.12906 -0.18385,-0.16992c-0.07243,-0.04085 -0.156,-0.06128 -0.25071,-0.06128c-0.08728,0 -0.16528,0.01672 -0.23399,0.05014c-0.06871,0.03157 -0.12721,0.078 -0.17549,0.13928c-0.04828,0.06129 -0.08543,0.13557 -0.11143,0.22285c-0.02414,0.08728 -0.03621,0.18571 -0.03621,0.29528c0,0.10214 0.01207,0.19778 0.03621,0.28691c0.02414,0.08729 0.05942,0.16343 0.10586,0.22842c0.04643,0.06314 0.10492,0.11329 0.17549,0.15043c0.07057,0.03529 0.15135,0.05293 0.24235,0.05293c0.07242,0 0.14299,-0.013 0.21171,-0.039c0.07057,-0.026 0.13277,-0.065 0.18663,-0.117c0.05571,-0.052 0.10028,-0.11699 0.13371,-0.19499c0.03343,-0.07985 0.05014,-0.17271 0.05014,-0.27856" id="svg_15"/>
    </g>
    <g fill="#323232" id="svg_26">
     <path d="m32.84121,86.46046l0,-0.58219l0.97218,0l0,-2.67697l-0.94153,0.58776l0,-0.61562l0.98332,-0.63791l0.74097,0l0,3.34274l0.89975,0l0,0.58219l-2.65469,0" id="svg_16"/>
     <path d="m38.59629,84.49661c0,0.37513 -0.03436,0.69176 -0.10307,0.94989c-0.06871,0.25628 -0.16435,0.46427 -0.28691,0.62398c-0.12072,0.15785 -0.26464,0.27206 -0.43177,0.34263c-0.16529,0.06871 -0.34635,0.10307 -0.5432,0.10307c-0.19685,0 -0.37792,-0.03436 -0.54319,-0.10307c-0.16528,-0.06871 -0.30735,-0.18199 -0.4262,-0.33985c-0.11886,-0.1597 -0.21171,-0.3677 -0.27856,-0.62397c-0.06685,-0.25814 -0.10029,-0.5757 -0.10029,-0.95268c0,-0.39556 0.0325,-0.7224 0.0975,-0.98054c0.06685,-0.25999 0.16064,-0.46705 0.28135,-0.62119c0.12071,-0.15413 0.26463,-0.26184 0.43177,-0.32313c0.16899,-0.06314 0.35563,-0.09471 0.55991,-0.09471c0.19127,0 0.36863,0.03157 0.53205,0.09471c0.16528,0.06129 0.30734,0.169 0.4262,0.32313c0.12071,0.15414 0.21449,0.3612 0.28135,0.62119c0.06871,0.25814 0.10306,0.58498 0.10306,0.98054m-0.78554,0c0,-0.27671 -0.01022,-0.50513 -0.03064,-0.68526c-0.02043,-0.18199 -0.05293,-0.32592 -0.0975,-0.43177c-0.04457,-0.10771 -0.10307,-0.18292 -0.17549,-0.22564c-0.07057,-0.04271 -0.15693,-0.06407 -0.25906,-0.06407c-0.10957,0 -0.2015,0.02229 -0.27578,0.06686c-0.07428,0.04272 -0.13464,0.11793 -0.18107,0.22564c-0.04457,0.10771 -0.07707,0.25256 -0.0975,0.43455c-0.01857,0.18014 -0.02786,0.4067 -0.02786,0.67969c0,0.26928 0.01021,0.49398 0.03064,0.67412c0.02043,0.18014 0.05293,0.32499 0.0975,0.43455c0.04457,0.10772 0.10307,0.18386 0.1755,0.22842c0.07242,0.04457 0.16156,0.06687 0.26742,0.06685c0.10213,0.00001 0.18942,-0.02227 0.26184,-0.06685c0.07242,-0.04456 0.13185,-0.1207 0.17828,-0.22842c0.04642,-0.10956 0.07985,-0.25441 0.10029,-0.43455c0.02228,-0.18014 0.03343,-0.40484 0.03343,-0.67412" id="svg_17"/>
    </g>
    <g fill="#323232" id="svg_25">
     <path d="m55.28191,17.32184l-0.3482,-1.00282l-1.49587,0l-0.3482,1.00282l-0.82176,0l1.4318,-3.92493l0.9694,0l1.42623,3.92493l-0.8134,0m-0.91925,-2.7494c-0.02229,-0.06499 -0.04457,-0.12999 -0.06685,-0.19499c-0.02043,-0.06685 -0.039,-0.12721 -0.05571,-0.18107c-0.01486,-0.05571 -0.02786,-0.10121 -0.039,-0.13649c-0.0093,-0.03528 -0.01486,-0.05478 -0.01671,-0.0585c-0.0019,0.0056 -0.0074,0.026 -0.01671,0.06128c-0.0093,0.03529 -0.02229,0.07986 -0.039,0.13371c-0.01486,0.05386 -0.03343,0.11421 -0.05571,0.18106c-0.02043,0.065 -0.04179,0.13 -0.06407,0.195l-0.3872,1.12817l1.12817,0l-0.3872,-1.12817" id="svg_18"/>
    </g>
    <g fill="#323232" id="svg_23">
     <path d="m73.64586,16.20202c0,0.19871 -0.03993,0.36956 -0.11978,0.51256c-0.07986,0.14114 -0.18942,0.2572 -0.3287,0.3482c-0.13743,0.08914 -0.29806,0.15506 -0.48191,0.19778c-0.18385,0.04086 -0.37885,0.06128 -0.58498,0.06128l-1.96386,0l0,-3.92493l1.79672,0c0.23214,0 0.43827,0.02043 0.61841,0.06128c0.18199,0.039 0.3352,0.09936 0.45963,0.18106c0.12442,0.08172 0.2182,0.18478 0.28134,0.30921c0.06499,0.12257 0.09749,0.26742 0.0975,0.43455c0,0.22285 -0.06222,0.41135 -0.18663,0.56548c-0.12257,0.15228 -0.31014,0.25535 -0.5627,0.3092c0.31756,0.03714 0.55898,0.13743 0.72426,0.30085c0.16713,0.16157 0.2507,0.37606 0.25071,0.64348m-1.05297,-1.70758c0,-0.17642 -0.05664,-0.30178 -0.16992,-0.37606c-0.11142,-0.07428 -0.27763,-0.11142 -0.49862,-0.11143l-0.93597,0l0,0.97218l0.94154,0c0.23213,0 0.4002,-0.03993 0.50419,-0.11978c0.10586,-0.08171 0.15878,-0.20335 0.15878,-0.36491m0.22843,1.64351c-0.00001,-0.104 -0.02043,-0.19128 -0.06128,-0.26185c-0.04086,-0.07057 -0.0975,-0.12721 -0.16993,-0.16992c-0.07057,-0.04271 -0.15414,-0.07335 -0.2507,-0.09192c-0.09471,-0.01857 -0.19778,-0.02785 -0.30921,-0.02786l-1.04181,0l0,1.12539l1.07246,0c0.1077,0 0.20799,-0.0084 0.30084,-0.02507c0.09285,-0.01857 0.17271,-0.04921 0.23957,-0.09192c0.06871,-0.04457 0.12256,-0.104 0.16156,-0.17828c0.03899,-0.07428 0.05849,-0.16714 0.0585,-0.27857" id="svg_24"/>
    </g>
   </g>
   <path d="m79.21992,34.45175l0.13733,-9.28833c0.06901,-7.33978 -0.89117,-12.84389 -4.11252,-17.80849l2.618,-0.0347l27.94271,28.48994c-4.13345,-2.94231 -9.77594,-0.88005 -17.13313,-1.14073l-9.4524,-0.2177l0.00001,0.00001z" fill="url(#svg_21)" filter="url(#svg_22)" id="svg_4" opacity="0.505"/>
   <path d="m82.74832,29.12168l0.13072,-8.07666c0.06569,-6.38231 -2.69158,-10.83607 -5.75779,-15.15303l29.86674,30.58816c-3.93438,-2.55848 -8.23966,-6.9425 -15.24251,-7.16917l-8.99716,-0.1893z" fill="#eee" id="svg_5"/>
   <path d="m82.74832,29.12168l0.13072,-8.07666c0.06569,-6.38231 -2.69158,-10.83607 -5.75779,-15.15303l29.86674,30.58816c-3.93438,-2.55848 -8.23966,-6.9425 -15.24251,-7.16917l-8.99716,-0.1893z" fill="url(#svg_20)" id="svg_6"/>
  </symbol>
  <symbol id="svg_174" xmlns:xlink="http://www.w3.org/1999/xlink">
   <path d="m17.159,6.3293l0,36.74l0,36.739l0,36.742l0,36.74l33.528,0l33.528,0l33.525,0l33.53,0l0,-36.74l0,-36.742l0,-36.739l-33.53,-36.74l-33.525,0.0003l-33.528,0l-33.528,0l0,-0.0003z" fill="#ffffff" fill-rule="evenodd" id="svg_161" stroke-opacity="0.36478" stroke-width="0.42649"/>
   <g fill="url(#svg_157)" id="svg_156" transform="matrix(0.30417,0,0,0.29757,-36.704,-112.49) ">
    <path d="m173.36,408.81l0,122.26l0,122.26l0,122.27l0,122.26l108.76,0l108.76,0l108.77,0l108.76,0l0,-122.26l0,-122.27l0,-122.26l-108.76,-122.26l-108.77,0l-108.76,0l-108.76,0z" fill-opacity="0.75" fill-rule="evenodd" id="svg_160" stroke-width=".95407pt"/>
    <path d="m170.12,407.19l0,493.9l441.54,0l0,-371.28c-36.85,-41.42 -73.68,-82.86 -110.57,-124.25l-330.97,0l0,1.63z" fill-opacity="0.75" fill-rule="evenodd" id="svg_159" stroke-width=".95407pt"/>
    <path d="m166.88,403.94l0,500.4l448.03,0l0,-375.78c-37.45,-42.09 -74.89,-84.19 -112.38,-126.25l-335.65,0l0,1.63z" fill-opacity="0.75" fill-rule="evenodd" id="svg_158" stroke-width=".95407pt"/>
   </g>
   <path d="m17.21465,6.51139l0,36.73912l0,36.73913l0,36.73912l0,36.73912l33.52894,0l33.52597,0l33.52894,0l33.52597,0l0,-36.73912l0,-36.73912l0,-36.73913l-33.52597,-36.73912l-33.52894,0l-33.52597,0l-33.52894,0z" fill="url(#svg_155)" fill-rule="evenodd" id="svg_154" stroke="#000000" stroke-opacity="0.36478" stroke-width="1.4375"/>
   <path d="m18.19966,17.83605l-0.60524,134.69429l131.67695,0l0.07417,-33.29455c-2.94316,1.13335 -32.69227,-40.99959 -70.14048,-39.18682c-37.48381,1.81278 -27.78502,-56.77756 -61.0054,-62.21292z" fill="url(#svg_153)" fill-rule="evenodd" id="svg_152" stroke-width="1pt"/>
   <path d="m151.32447,43.25051c-10.10823,-2.99063 -23.20413,-2.56636 -33.09874,-0.8604c1.70893,-10.96269 1.92255,-24.70241 -0.42723,-35.87872l33.52597,36.73912z" fill="url(#svg_151)" fill-rule="evenodd" id="svg_150" stroke-width=".95407pt"/>
   <rect fill="#7b7b7b" fill-opacity="0.43396" fill-rule="evenodd" height="20.954" id="svg_149" stroke-width="1pt" width="74.377" x="31.922" y="18.268"/>
   <g fill="url(#svg_78)" id="svg_77">
    <path d="m35.2399,58.66024c-2.002,0 -3.318,1.764 -3.318,4.858s1.316,4.872 3.318,4.872s3.318,-1.778 3.318,-4.872s-1.316,-4.858 -3.318,-4.858m0,0.658c1.288,0 1.988,1.428 1.988,4.2s-0.7,4.2 -1.988,4.2s-2.002,-1.414 -2.002,-4.186c0,-2.786 0.714,-4.214 2.002,-4.214" fill="url(#svg_78)" id="svg_148"/>
    <path d="m43.4949,58.66024l-3.038,0.91l0,0.588l2.198,-0.392l0,7.532l-0.168,0.238l-1.61,0.084l0,0.602l4.69,0l0,-0.588l-1.512,-0.07l-0.168,-0.21l0,-8.694l-0.392,0" fill="url(#svg_78)" id="svg_147"/>
    <path d="m50.8259,58.66024c-2.002,0 -3.318,1.764 -3.318,4.858s1.316,4.872 3.318,4.872s3.318,-1.778 3.318,-4.872s-1.316,-4.858 -3.318,-4.858m0,0.658c1.288,0 1.988,1.428 1.988,4.2s-0.7,4.2 -1.988,4.2s-2.002,-1.414 -2.002,-4.186c0,-2.786 0.714,-4.214 2.002,-4.214" fill="url(#svg_78)" id="svg_146"/>
    <path d="m59.0809,58.66024l-3.038,0.91l0,0.588l2.198,-0.392l0,7.532l-0.168,0.238l-1.61,0.084l0,0.602l4.69,0l0,-0.588l-1.512,-0.07l-0.168,-0.21l0,-8.694l-0.392,0" fill="url(#svg_78)" id="svg_145"/>
    <path d="m66.8739,58.66024l-3.038,0.91l0,0.588l2.198,-0.392l0,7.532l-0.168,0.238l-1.61,0.084l0,0.602l4.69,0l0,-0.588l-1.512,-0.07l-0.168,-0.21l0,-8.694l-0.392,0" fill="url(#svg_78)" id="svg_144"/>
    <path d="m74.6669,58.66024l-3.038,0.91l0,0.588l2.198,-0.392l0,7.532l-0.168,0.238l-1.61,0.084l0,0.602l4.69,0l0,-0.588l-1.512,-0.07l-0.168,-0.21l0,-8.694l-0.392,0" fill="url(#svg_78)" id="svg_143"/>
    <path d="m81.9979,58.66024c-2.002,0 -3.318,1.764 -3.318,4.858s1.316,4.872 3.318,4.872s3.318,-1.778 3.318,-4.872s-1.316,-4.858 -3.318,-4.858m0,0.658c1.288,0 1.988,1.428 1.988,4.2s-0.7,4.2 -1.988,4.2s-2.002,-1.414 -2.002,-4.186c0,-2.786 0.714,-4.214 2.002,-4.214" fill="url(#svg_78)" id="svg_142"/>
    <path d="m90.2529,58.66024l-3.038,0.91l0,0.588l2.198,-0.392l0,7.532l-0.168,0.238l-1.61,0.084l0,0.602l4.69,0l0,-0.588l-1.512,-0.07l-0.168,-0.21l0,-8.694l-0.392,0" fill="url(#svg_78)" id="svg_141"/>
    <path d="m97.5829,58.66024c-2.002,0 -3.318,1.764 -3.318,4.858s1.316,4.872 3.318,4.872s3.318,-1.778 3.318,-4.872s-1.316,-4.858 -3.318,-4.858m0,0.658c1.288,0 1.988,1.428 1.988,4.2s-0.7,4.2 -1.988,4.2s-2.002,-1.414 -2.002,-4.186c0,-2.786 0.714,-4.214 2.002,-4.214" fill="url(#svg_78)" id="svg_140"/>
    <path d="m105.8429,58.66024l-3.038,0.91l0,0.588l2.198,-0.392l0,7.532l-0.168,0.238l-1.61,0.084l0,0.602l4.69,0l0,-0.588l-1.512,-0.07l-0.168,-0.21l0,-8.694l-0.392,0" fill="url(#svg_78)" id="svg_139"/>
    <path d="m113.1729,58.66024c-2.002,0 -3.318,1.764 -3.318,4.858s1.316,4.872 3.318,4.872s3.318,-1.778 3.318,-4.872s-1.316,-4.858 -3.318,-4.858m0,0.658c1.288,0 1.988,1.428 1.988,4.2s-0.7,4.2 -1.988,4.2s-2.002,-1.414 -2.002,-4.186c0,-2.786 0.714,-4.214 2.002,-4.214" fill="url(#svg_78)" id="svg_138"/>
    <path d="m120.9629,58.66024c-2.002,0 -3.318,1.764 -3.318,4.858s1.316,4.872 3.318,4.872s3.318,-1.778 3.318,-4.872s-1.316,-4.858 -3.318,-4.858m0,0.658c1.288,0 1.988,1.428 1.988,4.2s-0.70001,4.2 -1.988,4.2s-2.002,-1.414 -2.002,-4.186c0,-2.786 0.714,-4.214 2.002,-4.214" fill="url(#svg_78)" id="svg_137"/>
    <path d="m129.2129,58.66024l-3.038,0.91l0,0.588l2.198,-0.392l0,7.532l-0.168,0.238l-1.61,0.084l0,0.602l4.69,0l0,-0.588l-1.512,-0.07l-0.168,-0.21l0,-8.694l-0.39199,0" fill="url(#svg_78)" id="svg_136"/>
    <path d="m136.5529,58.66024c-2.002,0 -3.318,1.764 -3.318,4.858s1.316,4.872 3.318,4.872s3.318,-1.778 3.318,-4.872s-1.316,-4.858 -3.318,-4.858m0,0.658c1.288,0 1.988,1.428 1.988,4.2s-0.7,4.2 -1.988,4.2s-2.002,-1.414 -2.002,-4.186c0,-2.786 0.71401,-4.214 2.002,-4.214" fill="url(#svg_78)" id="svg_135"/>
    <path d="m35.7019,76.16024l-3.038,0.91l0,0.588l2.198,-0.392l0,7.532l-0.168,0.238l-1.61,0.084l0,0.602l4.69,0l0,-0.588l-1.512,-0.07l-0.168,-0.21l0,-8.694l-0.392,0" fill="url(#svg_78)" id="svg_134"/>
    <path d="m43.0329,76.16024c-2.002,0 -3.318,1.764 -3.318,4.858s1.316,4.872 3.318,4.872s3.318,-1.778 3.318,-4.872s-1.316,-4.858 -3.318,-4.858m0,0.658c1.288,0 1.988,1.428 1.988,4.2s-0.7,4.2 -1.988,4.2s-2.002,-1.414 -2.002,-4.186c0,-2.786 0.714,-4.214 2.002,-4.214" fill="url(#svg_78)" id="svg_133"/>
    <path d="m50.8259,76.16024c-2.002,0 -3.318,1.764 -3.318,4.858s1.316,4.872 3.318,4.872s3.318,-1.778 3.318,-4.872s-1.316,-4.858 -3.318,-4.858m0,0.658c1.288,0 1.988,1.428 1.988,4.2s-0.7,4.2 -1.988,4.2s-2.002,-1.414 -2.002,-4.186c0,-2.786 0.714,-4.214 2.002,-4.214" fill="url(#svg_78)" id="svg_132"/>
    <path d="m58.6189,76.16024c-2.002,0 -3.318,1.764 -3.318,4.858s1.316,4.872 3.318,4.872s3.318,-1.778 3.318,-4.872s-1.316,-4.858 -3.318,-4.858m0,0.658c1.288,0 1.988,1.428 1.988,4.2s-0.7,4.2 -1.988,4.2s-2.002,-1.414 -2.002,-4.186c0,-2.786 0.714,-4.214 2.002,-4.214" fill="url(#svg_78)" id="svg_131"/>
    <path d="m66.8739,76.16024l-3.038,0.91l0,0.588l2.198,-0.392l0,7.532l-0.168,0.238l-1.61,0.084l0,0.602l4.69,0l0,-0.588l-1.512,-0.07l-0.168,-0.21l0,-8.694l-0.392,0" fill="url(#svg_78)" id="svg_130"/>
    <path d="m74.2049,76.16024c-2.002,0 -3.318,1.764 -3.318,4.858s1.316,4.872 3.318,4.872s3.318,-1.778 3.318,-4.872s-1.316,-4.858 -3.318,-4.858m0,0.658c1.288,0 1.988,1.428 1.988,4.2s-0.7,4.2 -1.988,4.2s-2.002,-1.414 -2.002,-4.186c0,-2.786 0.714,-4.214 2.002,-4.214" fill="url(#svg_78)" id="svg_129"/>
    <path d="m82.4599,76.16024l-3.038,0.91l0,0.588l2.198,-0.392l0,7.532l-0.168,0.238l-1.61,0.084l0,0.602l4.69,0l0,-0.588l-1.512,-0.07l-0.168,-0.21l0,-8.694l-0.392,0" fill="url(#svg_78)" id="svg_128"/>
    <path d="m89.7909,76.16024c-2.002,0 -3.318,1.764 -3.318,4.858s1.316,4.872 3.318,4.872s3.318,-1.778 3.318,-4.872s-1.316,-4.858 -3.318,-4.858m0,0.658c1.288,0 1.988,1.428 1.988,4.2s-0.7,4.2 -1.988,4.2s-2.002,-1.414 -2.002,-4.186c0,-2.786 0.714,-4.214 2.002,-4.214" fill="url(#svg_78)" id="svg_127"/>
    <path d="m98.0429,76.16024l-3.038,0.91l0,0.588l2.198,-0.392l0,7.532l-0.168,0.238l-1.61,0.084l0,0.602l4.69,0l0,-0.588l-1.512,-0.07l-0.168,-0.21l0,-8.694l-0.392,0" fill="url(#svg_78)" id="svg_126"/>
    <path d="m105.8429,76.16024l-3.038,0.91l0,0.588l2.198,-0.392l0,7.532l-0.168,0.238l-1.61,0.084l0,0.602l4.69,0l0,-0.588l-1.512,-0.07l-0.168,-0.21l0,-8.694l-0.392,0" fill="url(#svg_78)" id="svg_125"/>
    <path d="m113.1729,76.16024c-2.002,0 -3.318,1.764 -3.318,4.858s1.316,4.872 3.318,4.872s3.318,-1.778 3.318,-4.872s-1.316,-4.858 -3.318,-4.858m0,0.658c1.288,0 1.988,1.428 1.988,4.2s-0.7,4.2 -1.988,4.2s-2.002,-1.414 -2.002,-4.186c0,-2.786 0.714,-4.214 2.002,-4.214" fill="url(#svg_78)" id="svg_124"/>
    <path d="m121.4229,76.16024l-3.038,0.91l0,0.588l2.198,-0.392l0,7.532l-0.168,0.238l-1.61,0.084l0,0.602l4.69,0l0,-0.588l-1.512,-0.07l-0.168,-0.21l0,-8.694l-0.392,0" fill="url(#svg_78)" id="svg_123"/>
    <path d="m128.7529,76.16024c-2.002,0 -3.318,1.764 -3.318,4.858s1.316,4.872 3.318,4.872s3.318,-1.778 3.318,-4.872s-1.316,-4.858 -3.318,-4.858m0,0.658c1.288,0 1.988,1.428 1.988,4.2s-0.7,4.2 -1.988,4.2s-2.002,-1.414 -2.002,-4.186c0,-2.786 0.71401,-4.214 2.002,-4.214" fill="url(#svg_78)" id="svg_122"/>
    <path d="m137.0129,76.16024l-3.038,0.91l0,0.588l2.198,-0.392l0,7.532l-0.168,0.238l-1.61,0.084l0,0.602l4.69,0l0,-0.588l-1.512,-0.07l-0.168,-0.21l0,-8.694l-0.392,0" fill="url(#svg_78)" id="svg_121"/>
    <path d="m35.2399,93.66024c-2.002,0 -3.318,1.764 -3.318,4.858s1.316,4.872 3.318,4.872s3.318,-1.778 3.318,-4.872s-1.316,-4.858 -3.318,-4.858m0,0.658c1.288,0 1.988,1.428 1.988,4.2s-0.7,4.2 -1.988,4.2s-2.002,-1.414 -2.002,-4.186c0,-2.786 0.714,-4.214 2.002,-4.214" fill="url(#svg_78)" id="svg_120"/>
    <path d="m43.4949,93.66024l-3.038,0.91l0,0.588l2.198,-0.392l0,7.532l-0.168,0.238l-1.61,0.084l0,0.602l4.69,0l0,-0.588l-1.512,-0.07l-0.168,-0.21l0,-8.694l-0.392,0" fill="url(#svg_78)" id="svg_119"/>
    <path d="m50.8259,93.66024c-2.002,0 -3.318,1.764 -3.318,4.858s1.316,4.872 3.318,4.872s3.318,-1.778 3.318,-4.872s-1.316,-4.858 -3.318,-4.858m0,0.658c1.288,0 1.988,1.428 1.988,4.2s-0.7,4.2 -1.988,4.2s-2.002,-1.414 -2.002,-4.186c0,-2.786 0.714,-4.214 2.002,-4.214" fill="url(#svg_78)" id="svg_118"/>
    <path d="m59.0809,93.66024l-3.038,0.91l0,0.588l2.198,-0.392l0,7.532l-0.168,0.238l-1.61,0.084l0,0.602l4.69,0l0,-0.588l-1.512,-0.07l-0.168,-0.21l0,-8.694l-0.392,0" fill="url(#svg_78)" id="svg_117"/>
    <path d="m66.4119,93.66024c-2.002,0 -3.318,1.764 -3.318,4.858s1.316,4.872 3.318,4.872s3.318,-1.778 3.318,-4.872s-1.316,-4.858 -3.318,-4.858m0,0.658c1.288,0 1.988,1.428 1.988,4.2s-0.7,4.2 -1.988,4.2s-2.002,-1.414 -2.002,-4.186c0,-2.786 0.714,-4.214 2.002,-4.214" fill="url(#svg_78)" id="svg_116"/>
    <path d="m74.2049,93.66024c-2.002,0 -3.318,1.764 -3.318,4.858s1.316,4.872 3.318,4.872s3.318,-1.778 3.318,-4.872s-1.316,-4.858 -3.318,-4.858m0,0.658c1.288,0 1.988,1.428 1.988,4.2s-0.7,4.2 -1.988,4.2s-2.002,-1.414 -2.002,-4.186c0,-2.786 0.714,-4.214 2.002,-4.214" fill="url(#svg_78)" id="svg_115"/>
    <path d="m82.4599,93.66024l-3.038,0.91l0,0.588l2.198,-0.392l0,7.532l-0.168,0.238l-1.61,0.084l0,0.602l4.69,0l0,-0.588l-1.512,-0.07l-0.168,-0.21l0,-8.694l-0.392,0" fill="url(#svg_78)" id="svg_114"/>
    <path d="m89.7909,93.66024c-2.002,0 -3.318,1.764 -3.318,4.858s1.316,4.872 3.318,4.872s3.318,-1.778 3.318,-4.872s-1.316,-4.858 -3.318,-4.858m0,0.658c1.288,0 1.988,1.428 1.988,4.2s-0.7,4.2 -1.988,4.2s-2.002,-1.414 -2.002,-4.186c0,-2.786 0.714,-4.214 2.002,-4.214" fill="url(#svg_78)" id="svg_113"/>
    <path d="m98.0429,93.66024l-3.038,0.91l0,0.588l2.198,-0.392l0,7.532l-0.168,0.238l-1.61,0.084l0,0.602l4.69,0l0,-0.588l-1.512,-0.07l-0.168,-0.21l0,-8.694l-0.392,0" fill="url(#svg_78)" id="svg_112"/>
    <path d="m105.3729,93.66024c-2.002,0 -3.318,1.764 -3.318,4.858s1.316,4.872 3.318,4.872s3.318,-1.778 3.318,-4.872s-1.316,-4.858 -3.318,-4.858m0,0.658c1.288,0 1.988,1.428 1.988,4.2s-0.7,4.2 -1.988,4.2s-2.002,-1.414 -2.002,-4.186c0,-2.786 0.714,-4.214 2.002,-4.214" fill="url(#svg_78)" id="svg_111"/>
    <path d="m113.6329,93.66024l-3.038,0.91l0,0.588l2.198,-0.392l0,7.532l-0.168,0.238l-1.61,0.084l0,0.602l4.69,0l0,-0.588l-1.512,-0.07l-0.168,-0.21l0,-8.694l-0.392,0" fill="url(#svg_78)" id="svg_110"/>
    <path d="m121.4229,93.66024l-3.038,0.91l0,0.588l2.198,-0.392l0,7.532l-0.168,0.238l-1.61,0.084l0,0.602l4.69,0l0,-0.588l-1.512,-0.07l-0.168,-0.21l0,-8.694l-0.392,0" fill="url(#svg_78)" id="svg_109"/>
    <path d="m129.2129,93.66024l-3.038,0.91l0,0.588l2.198,-0.392l0,7.532l-0.168,0.238l-1.61,0.084l0,0.602l4.69,0l0,-0.588l-1.512,-0.07l-0.168,-0.21l0,-8.694l-0.39199,0" fill="url(#svg_78)" id="svg_108"/>
    <path d="m137.0129,93.66024l-3.038,0.91l0,0.588l2.198,-0.392l0,7.532l-0.168,0.238l-1.61,0.084l0,0.602l4.69,0l0,-0.588l-1.512,-0.07l-0.168,-0.21l0,-8.694l-0.392,0" fill="url(#svg_78)" id="svg_107"/>
    <path d="m35.2399,111.16124c-2.002,0 -3.318,1.764 -3.318,4.858s1.316,4.872 3.318,4.872s3.318,-1.778 3.318,-4.872s-1.316,-4.858 -3.318,-4.858m0,0.658c1.288,0 1.988,1.428 1.988,4.2s-0.7,4.2 -1.988,4.2s-2.002,-1.414 -2.002,-4.186c0,-2.786 0.714,-4.214 2.002,-4.214" fill="url(#svg_78)" id="svg_106"/>
    <path d="m43.4949,111.16124l-3.038,0.91l0,0.588l2.198,-0.392l0,7.532l-0.168,0.238l-1.61,0.084l0,0.602l4.69,0l0,-0.588l-1.512,-0.07l-0.168,-0.21l0,-8.694l-0.392,0" fill="url(#svg_78)" id="svg_105"/>
    <path d="m50.8259,111.16124c-2.002,0 -3.318,1.764 -3.318,4.858s1.316,4.872 3.318,4.872s3.318,-1.778 3.318,-4.872s-1.316,-4.858 -3.318,-4.858m0,0.658c1.288,0 1.988,1.428 1.988,4.2s-0.7,4.2 -1.988,4.2s-2.002,-1.414 -2.002,-4.186c0,-2.786 0.714,-4.214 2.002,-4.214" fill="url(#svg_78)" id="svg_104"/>
    <path d="m59.0809,111.16124l-3.038,0.91l0,0.588l2.198,-0.392l0,7.532l-0.168,0.238l-1.61,0.084l0,0.602l4.69,0l0,-0.588l-1.512,-0.07l-0.168,-0.21l0,-8.694l-0.392,0" fill="url(#svg_78)" id="svg_103"/>
    <path d="m66.4119,111.16124c-2.002,0 -3.318,1.764 -3.318,4.858s1.316,4.872 3.318,4.872s3.318,-1.778 3.318,-4.872s-1.316,-4.858 -3.318,-4.858m0,0.658c1.288,0 1.988,1.428 1.988,4.2s-0.7,4.2 -1.988,4.2s-2.002,-1.414 -2.002,-4.186c0,-2.786 0.714,-4.214 2.002,-4.214" fill="url(#svg_78)" id="svg_102"/>
    <path d="m74.2049,111.16124c-2.002,0 -3.318,1.764 -3.318,4.858s1.316,4.872 3.318,4.872s3.318,-1.778 3.318,-4.872s-1.316,-4.858 -3.318,-4.858m0,0.658c1.288,0 1.988,1.428 1.988,4.2s-0.7,4.2 -1.988,4.2s-2.002,-1.414 -2.002,-4.186c0,-2.786 0.714,-4.214 2.002,-4.214" fill="url(#svg_78)" id="svg_101"/>
    <path d="m82.4599,111.16124l-3.038,0.91l0,0.588l2.198,-0.392l0,7.532l-0.168,0.238l-1.61,0.084l0,0.602l4.69,0l0,-0.588l-1.512,-0.07l-0.168,-0.21l0,-8.694l-0.392,0" fill="url(#svg_78)" id="svg_100"/>
    <path d="m89.7909,111.16124c-2.002,0 -3.318,1.764 -3.318,4.858s1.316,4.872 3.318,4.872s3.318,-1.778 3.318,-4.872s-1.316,-4.858 -3.318,-4.858m0,0.658c1.288,0 1.988,1.428 1.988,4.2s-0.7,4.2 -1.988,4.2s-2.002,-1.414 -2.002,-4.186c0,-2.786 0.714,-4.214 2.002,-4.214" fill="url(#svg_78)" id="svg_99"/>
    <path d="m97.5829,111.16124c-2.002,0 -3.318,1.764 -3.318,4.858s1.316,4.872 3.318,4.872s3.318,-1.778 3.318,-4.872s-1.316,-4.858 -3.318,-4.858m0,0.658c1.288,0 1.988,1.428 1.988,4.2s-0.7,4.2 -1.988,4.2s-2.002,-1.414 -2.002,-4.186c0,-2.786 0.714,-4.214 2.002,-4.214" fill="url(#svg_78)" id="svg_98"/>
    <path d="m105.8429,111.16124l-3.038,0.91l0,0.588l2.198,-0.392l0,7.532l-0.168,0.238l-1.61,0.084l0,0.602l4.69,0l0,-0.588l-1.512,-0.07l-0.168,-0.21l0,-8.694l-0.392,0" fill="url(#svg_78)" id="svg_97"/>
    <path d="m113.1729,111.16124c-2.002,0 -3.318,1.764 -3.318,4.858s1.316,4.872 3.318,4.872s3.318,-1.778 3.318,-4.872s-1.316,-4.858 -3.318,-4.858m0,0.658c1.288,0 1.988,1.428 1.988,4.2s-0.7,4.2 -1.988,4.2s-2.002,-1.414 -2.002,-4.186c0,-2.786 0.714,-4.214 2.002,-4.214" fill="url(#svg_78)" id="svg_96"/>
    <path d="m121.4229,111.16124l-3.038,0.91l0,0.588l2.198,-0.392l0,7.532l-0.168,0.238l-1.61,0.084l0,0.602l4.69,0l0,-0.588l-1.512,-0.07l-0.168,-0.21l0,-8.694l-0.392,0" fill="url(#svg_78)" id="svg_95"/>
    <path d="m128.7529,111.16124c-2.002,0 -3.318,1.764 -3.318,4.858s1.316,4.872 3.318,4.872s3.318,-1.778 3.318,-4.872s-1.316,-4.858 -3.318,-4.858m0,0.658c1.288,0 1.988,1.428 1.988,4.2s-0.7,4.2 -1.988,4.2s-2.002,-1.414 -2.002,-4.186c0,-2.786 0.71401,-4.214 2.002,-4.214" fill="url(#svg_78)" id="svg_94"/>
    <path d="m136.5529,111.16124c-2.002,0 -3.318,1.764 -3.318,4.858s1.316,4.872 3.318,4.872s3.318,-1.778 3.318,-4.872s-1.316,-4.858 -3.318,-4.858m0,0.658c1.288,0 1.988,1.428 1.988,4.2s-0.7,4.2 -1.988,4.2s-2.002,-1.414 -2.002,-4.186c0,-2.786 0.71401,-4.214 2.002,-4.214" fill="url(#svg_78)" id="svg_93"/>
    <path d="m35.2399,128.66124c-2.002,0 -3.318,1.764 -3.318,4.858s1.316,4.872 3.318,4.872s3.318,-1.778 3.318,-4.872s-1.316,-4.858 -3.318,-4.858m0,0.658c1.288,0 1.988,1.428 1.988,4.2s-0.7,4.2 -1.988,4.2s-2.002,-1.414 -2.002,-4.186c0,-2.786 0.714,-4.214 2.002,-4.214" fill="url(#svg_78)" id="svg_92"/>
    <path d="m43.4949,128.66124l-3.038,0.91l0,0.588l2.198,-0.392l0,7.532l-0.168,0.238l-1.61,0.084l0,0.602l4.69,0l0,-0.588l-1.512,-0.07l-0.168,-0.21l0,-8.694l-0.392,0" fill="url(#svg_78)" id="svg_91"/>
    <path d="m51.2879,128.66124l-3.038,0.91l0,0.588l2.198,-0.392l0,7.532l-0.168,0.238l-1.61,0.084l0,0.602l4.69,0l0,-0.588l-1.512,-0.07l-0.168,-0.21l0,-8.694l-0.392,0" fill="url(#svg_78)" id="svg_90"/>
    <path d="m58.6189,128.66124c-2.002,0 -3.318,1.764 -3.318,4.858s1.316,4.872 3.318,4.872s3.318,-1.778 3.318,-4.872s-1.316,-4.858 -3.318,-4.858m0,0.658c1.288,0 1.988,1.428 1.988,4.2s-0.7,4.2 -1.988,4.2s-2.002,-1.414 -2.002,-4.186c0,-2.786 0.714,-4.214 2.002,-4.214" fill="url(#svg_78)" id="svg_89"/>
    <path d="m66.8739,128.66124l-3.038,0.91l0,0.588l2.198,-0.392l0,7.532l-0.168,0.238l-1.61,0.084l0,0.602l4.69,0l0,-0.588l-1.512,-0.07l-0.168,-0.21l0,-8.694l-0.392,0" fill="url(#svg_78)" id="svg_88"/>
    <path d="m74.2049,128.66124c-2.002,0 -3.318,1.764 -3.318,4.858s1.316,4.872 3.318,4.872s3.318,-1.778 3.318,-4.872s-1.316,-4.858 -3.318,-4.858m0,0.658c1.288,0 1.988,1.428 1.988,4.2s-0.7,4.2 -1.988,4.2s-2.002,-1.414 -2.002,-4.186c0,-2.786 0.714,-4.214 2.002,-4.214" fill="url(#svg_78)" id="svg_87"/>
    <path d="m82.4599,128.66124l-3.038,0.91l0,0.588l2.198,-0.392l0,7.532l-0.168,0.238l-1.61,0.084l0,0.602l4.69,0l0,-0.588l-1.512,-0.07l-0.168,-0.21l0,-8.694l-0.392,0" fill="url(#svg_78)" id="svg_86"/>
    <path d="m89.7909,128.66124c-2.002,0 -3.318,1.764 -3.318,4.858s1.316,4.872 3.318,4.872s3.318,-1.778 3.318,-4.872s-1.316,-4.858 -3.318,-4.858m0,0.658c1.288,0 1.988,1.428 1.988,4.2s-0.7,4.2 -1.988,4.2s-2.002,-1.414 -2.002,-4.186c0,-2.786 0.714,-4.214 2.002,-4.214" fill="url(#svg_78)" id="svg_85"/>
    <path d="m97.5829,128.66124c-2.002,0 -3.318,1.764 -3.318,4.858s1.316,4.872 3.318,4.872s3.318,-1.778 3.318,-4.872s-1.316,-4.858 -3.318,-4.858m0,0.658c1.288,0 1.988,1.428 1.988,4.2s-0.7,4.2 -1.988,4.2s-2.002,-1.414 -2.002,-4.186c0,-2.786 0.714,-4.214 2.002,-4.214" fill="url(#svg_78)" id="svg_84"/>
    <path d="m105.8429,128.66124l-3.038,0.91l0,0.588l2.198,-0.392l0,7.532l-0.168,0.238l-1.61,0.084l0,0.602l4.69,0l0,-0.588l-1.512,-0.07l-0.168,-0.21l0,-8.694l-0.392,0" fill="url(#svg_78)" id="svg_83"/>
    <path d="m113.1729,128.66124c-2.002,0 -3.318,1.764 -3.318,4.858s1.316,4.872 3.318,4.872s3.318,-1.778 3.318,-4.872s-1.316,-4.858 -3.318,-4.858m0,0.658c1.288,0 1.988,1.428 1.988,4.2s-0.7,4.2 -1.988,4.2s-2.002,-1.414 -2.002,-4.186c0,-2.786 0.714,-4.214 2.002,-4.214" fill="url(#svg_78)" id="svg_82"/>
    <path d="m121.4229,128.66124l-3.038,0.91l0,0.588l2.198,-0.392l0,7.532l-0.168,0.238l-1.61,0.084l0,0.602l4.69,0l0,-0.588l-1.512,-0.07l-0.168,-0.21l0,-8.694l-0.392,0" fill="url(#svg_78)" id="svg_81"/>
    <path d="m128.7529,128.66124c-2.002,0 -3.318,1.764 -3.318,4.858s1.316,4.872 3.318,4.872s3.318,-1.778 3.318,-4.872s-1.316,-4.858 -3.318,-4.858m0,0.658c1.288,0 1.988,1.428 1.988,4.2s-0.7,4.2 -1.988,4.2s-2.002,-1.414 -2.002,-4.186c0,-2.786 0.71401,-4.214 2.002,-4.214" fill="url(#svg_78)" id="svg_80"/>
    <path d="m137.0129,128.66124l-3.038,0.91l0,0.588l2.198,-0.392l0,7.532l-0.168,0.238l-1.61,0.084l0,0.602l4.69,0l0,-0.588l-1.512,-0.07l-0.168,-0.21l0,-8.694l-0.392,0" fill="url(#svg_78)" id="svg_79"/>
   </g>
   <metadata>image/svg+xmlOpenclipartBinary File2010-04-21T12:27:30A remix of Anonymous' Spreadsheet Icon. It shows a binary file.https://openclipart.org/detail/49411/binary-file-by-mihimihiBinaryComputerDataFileIcon</metadata>
  </symbol>
  <symbol id="svg_220" viewBox="0 0 128 128" xmlns:xlink="http://www.w3.org/1999/xlink">
   <defs>
    <filter height="1.29" id="svg_206" width="1.294" x="-0.147" y="-0.145">
     <feGaussianBlur id="svg_213" stdDeviation="1.81881"/>
    </filter>
    <filter id="svg_209">
     <feGaussianBlur id="svg_212" stdDeviation="2.58594"/>
    </filter>
   </defs>
   <path d="m21.02233,6.69557l0,114.60886l85.92512,0l0,-83.68025l-0.57424,-0.60704c0.20353,0.14024 0.40318,0.29348 0.60446,0.42493l-29.86072,-30.71615c0.05469,0.07732 0.09665,0.16541 0.15112,0.24282l-0.24179,-0.27317l-56.00396,0l0.00001,0z" filter="url(#svg_209)" id="svg_195" opacity="0.809"/>
   <path d="m21.02232,5.85263l0,114.12356l85.92513,0l0,-83.32591l-29.92117,-30.79765l-56.00396,0z" fill="url(#svg_208)" id="svg_196"/>
   <g fill="#555" id="svg_197">
    <path d="m54.25225,35.04367c-0.00002,1.03232 0.29491,2.04613 0.88478,3.04145c0.55298,0.73738 0.82947,1.7512 0.82949,3.04145c-0.00002,1.32724 -0.6636,2.39635 -1.99077,3.20735c-1.32719,0.81111 -2.89399,1.21663 -4.70042,1.21658c-1.58525,0.00005 -3.07832,-0.55294 -4.47922,-1.65897c-1.40092,-1.1428 -2.10137,-2.7096 -2.10137,-4.70043c0,-1.84324 0.47926,-3.48377 1.43778,-4.92162c0.99537,-1.4377 2.56218,-3.04138 4.70042,-4.81102c3.53913,-2.94921 8.70037,-4.42385 15.48374,-4.42392c6.41467,0.00007 11.50218,1.58531 15.26255,4.75572c3.79716,3.13368 5.69576,7.33641 5.69581,12.60819c-0.00005,1.5853 -0.29498,3.1521 -0.88479,4.70042c-0.55303,1.54843 -1.19819,2.8756 -1.93547,3.98154c-0.73736,1.10603 -1.76961,2.30417 -3.09675,3.59444c-1.32721,1.25349 -2.43319,2.23044 -3.31794,2.93085c-0.84796,0.66363 -2.02767,1.54841 -3.53914,2.65435c-0.99542,0.7005 -1.8249,1.36409 -2.48846,1.99077c-0.66362,0.62676 -1.38251,1.47468 -2.15667,2.54376c-0.73734,1.03228 -1.30877,2.30416 -1.71427,3.81564c-0.36868,1.51153 -0.55301,3.2258 -0.55299,5.14281l0,2.59906c-0.00002,1.40093 -0.25809,2.39631 -0.77419,2.98615c-0.47928,0.58988 -1.54839,0.8848 -3.20734,0.88478c-1.62213,0.00002 -2.67281,-0.2949 -3.15205,-0.88478c-0.44241,-0.58984 -0.66361,-1.58522 -0.66359,-2.98615l0,-2.82025c-0.00002,-1.54835 0.05528,-2.85709 0.1659,-3.92624c0.14744,-1.06908 0.44237,-2.45156 0.88478,-4.14743c0.47924,-1.6958 1.32716,-3.41007 2.54376,-5.14282c1.21656,-1.76952 2.76493,-3.52066 4.64512,-5.25341c2.10134,-1.84325 3.63128,-3.68656 4.58983,-5.52991c0.95848,-1.84325 1.43774,-4.11051 1.43777,-6.80179c-0.00003,-3.53908 -0.86638,-6.69112 -2.59905,-9.45614c-1.73274,-2.76488 -3.81567,-4.14736 -6.2488,-4.14743c-2.47005,0.00007 -4.58984,0.58993 -6.35939,1.76957c-1.73272,1.14292 -2.59908,2.52539 -2.59906,4.14743m2.48846,59.55712c-0.00002,-1.76957 0.60827,-3.26264 1.82487,-4.47923c1.25342,-1.25343 2.76493,-1.88016 4.53452,-1.88017c1.73268,0.00001 3.22576,0.62674 4.47923,1.88017c1.25342,1.21659 1.88014,2.70966 1.88017,4.47923c-0.00003,1.69584 -0.62675,3.15205 -1.88017,4.36862c-1.25347,1.21658 -2.74655,1.82487 -4.47923,1.82487c-1.76959,0 -3.2811,-0.60829 -4.53452,-1.82487c-1.2166,-1.21657 -1.82489,-2.67278 -1.82487,-4.36862" id="svg_207"/>
   </g>
   <path d="m79.21992,34.45175l0.13733,-9.28833c0.06901,-7.33978 -0.89117,-12.84389 -4.11252,-17.80849l2.618,-0.0347l27.94271,28.48994c-4.13345,-2.94231 -9.77594,-0.88005 -17.13313,-1.14073l-9.4524,-0.2177l0.00001,0.00001z" fill="url(#svg_205)" filter="url(#svg_206)" id="svg_198" opacity="0.505"/>
   <path d="m82.74832,29.12168l0.13072,-8.07666c0.06569,-6.38231 -2.69158,-10.83607 -5.75779,-15.15303l29.86674,30.58816c-3.93438,-2.55848 -8.23966,-6.9425 -15.24251,-7.16917l-8.99716,-0.1893z" fill="#eee" id="svg_199"/>
   <path d="m82.74832,29.12168l0.13072,-8.07666c0.06569,-6.38231 -2.69158,-10.83607 -5.75779,-15.15303l29.86674,30.58816c-3.93438,-2.55848 -8.23966,-6.9425 -15.24251,-7.16917l-8.99716,-0.1893z" fill="url(#svg_204)" id="svg_200"/>
  </symbol>
  <symbol id="svg_227" viewBox="0 0 153.04 131.56" xmlns:xlink="http://www.w3.org/1999/xlink">
   <g id="svg_225" transform="matrix(0.0065968,0,0,0.0065968,0.50676,0.50676) ">
    <path d="m0,14522l14135,0l0,5267.7l8911,-9966.5l-8911,-9823.5l0,5125.3l-14135,0l0,9397z" fill="#ffffff" fill-rule="evenodd" id="svg_226" stroke="#23282b" stroke-linecap="round" stroke-linejoin="round" stroke-width="153.64px"/>
   </g>
   <metadata>image/svg+xmlOpenclipartArrow Right Black Outline2010-04-12T20:21:06Arrow Right Black Outline - Flèche droite contour noir - Pfeil Rechts schwarz Umriss - Freccia destra contorno nerohttps://openclipart.org/detail/46429/arrow-right-black-outline-by-palomaironiquepalomaironiquePfeilRechtsUmrissarrowblackcontornocontourdestradroiteflècheneronoiroutlinerecciarightschwarz</metadata>
  </symbol>
  <linearGradient id="svg_7">
   <stop id="svg_71" stop-color="#eee"/>
   <stop id="svg_70" offset="1" stop-color="#d2d2d2"/>
  </linearGradient>
  <linearGradient id="svg_8">
   <stop id="svg_69"/>
   <stop id="svg_68" offset="1" stop-opacity="0.536"/>
  </linearGradient>
  <linearGradient id="svg_63">
   <stop id="svg_67"/>
   <stop id="svg_66" offset="1" stop-color="#ddd" stop-opacity="0"/>
  </linearGradient>
  <radialGradient cx="89.51" cy="22.254" gradientTransform="matrix(1,0,0,0.97467889,0,0.43910718)" gradientUnits="userSpaceOnUse" id="svg_21" r="18.279" xlink:href="#svg_8"/>
  <linearGradient id="svg_20" x1="0.65515" x2="0.282431" xlink:href="#svg_63" y1="0.380482" y2="0.706373"/>
  <radialGradient cx="81.79" cy="100.32" gradientTransform="matrix(2.0026052,-1.5970314,1.7773333,2.2286954,-278.08797,27.013826)" gradientUnits="userSpaceOnUse" id="svg_53" r="44.42" xlink:href="#svg_7"/>
  <linearGradient id="svg_162">
   <stop id="svg_173" offset="0" stop-color="#000000"/>
   <stop id="svg_172" offset="0.31508" stop-color="#000000" stop-opacity="0.27559"/>
   <stop id="svg_171" offset="1" stop-color="#000000" stop-opacity="0"/>
  </linearGradient>
  <linearGradient id="svg_167">
   <stop id="svg_170" offset="0" stop-color="#dadada"/>
   <stop id="svg_169" offset="0.34923" stop-color="#f1f1f1"/>
   <stop id="svg_168" offset="1" stop-color="#f0f0f0"/>
  </linearGradient>
  <linearGradient id="svg_155" x1="0.88034" x2="0.08547" xlink:href="#svg_167" y1="0.21094" y2="1.1797"/>
  <linearGradient id="svg_151" x1="0.63248" x2="-0.37607" xlink:href="#svg_167" y1="0.32812" y2="1.3281"/>
  <linearGradient id="svg_153" x1="0.85827" x2="0.062992" y1="0.14062" y2="0.54688">
   <stop id="svg_166" offset="0" stop-color="#ffffff"/>
   <stop id="svg_165" offset="1" stop-color="#ffffff" stop-opacity="0"/>
  </linearGradient>
  <linearGradient id="svg_157" x1="0.052174" x2="0.78261" y1="0.97656" y2="0.007813">
   <stop id="svg_164" offset="0" stop-color="#000000" stop-opacity="0.095506"/>
   <stop id="svg_163" offset="1" stop-color="#000000" stop-opacity="0"/>
  </linearGradient>
  <linearGradient id="svg_78" x1="0.838368" x2="0" xlink:href="#svg_162" y1="0.013972" y2="1"/>
  <linearGradient id="svg_201">
   <stop id="svg_219" stop-color="#eee"/>
   <stop id="svg_218" offset="1" stop-color="#d2d2d2"/>
  </linearGradient>
  <linearGradient id="svg_202">
   <stop id="svg_217"/>
   <stop id="svg_216" offset="1" stop-opacity="0.536"/>
  </linearGradient>
  <linearGradient id="svg_203">
   <stop id="svg_215"/>
   <stop id="svg_214" offset="1" stop-color="#ddd" stop-opacity="0"/>
  </linearGradient>
  <radialGradient cx="89.51" cy="22.254" gradientTransform="matrix(1,0,0,0.97467889,0,0.43910718)" gradientUnits="userSpaceOnUse" id="svg_205" r="18.279" xlink:href="#svg_202"/>
  <linearGradient id="svg_204" x1="0.65515" x2="0.282431" xlink:href="#svg_203" y1="0.380482" y2="0.706373"/>
  <radialGradient cx="81.79" cy="100.32" gradientTransform="matrix(2.0026052,-1.5970314,1.7773333,2.2286954,-278.10308,27.013826)" gradientUnits="userSpaceOnUse" id="svg_208" r="44.42" xlink:href="#svg_201"/>
 </defs>
 <g>
  <title>background</title>
  <rect x="-1" y="-1" width="642" height="642" id="canvas_background" fill="none"/>
 </g>
 <g class="layer">
  <title>Layer 1</title>
  <use id="svg_74" transform="matrix(0.5338084054774044,0,0,0.5338084054774044,245.08889400426472,367.5466355635517) " x="-541.611316" xlink:href="#svg_73" y="-404.663133"/>
  <g id="svg_75"/>
  <g id="svg_176"/>
  <g id="svg_187"/>
  <polygon fill="#FF0000" id="svg_188"/>
  <polygon fill="#FF0000" id="svg_189"/>
  <polygon fill="#FF0000" id="svg_190"/>
  <polygon fill="#FF0000" id="svg_191"/>
  <g id="svg_194"/>
  <g id="svg_222"/>
  <use id="svg_175" transform="matrix(1.2604320067727566,0,0,1.5199650347924543,-126.15626312127041,-86.05478426223156) " x="407.759182" xlink:href="#svg_174" y="138.093273"/>
  <use id="svg_221" x="18.14403" xlink:href="#svg_220" y="-86.26971" transform="matrix(0.3684696508649189,0,0,0.3684696508649189,411.0346764274898,324.6750281212637) " stroke="null"/>
  <use id="svg_228" x="947.390787" xlink:href="#svg_227" y="-893.921012"/>
  <g id="svg_229"/>
  <path stroke="#000" fill="#fff" stroke-width="1.5" d="m356.837245,398.530761l15.171459,-15.22749l15.163527,-15.23375l-15.171556,-15.24452l-15.16344,-15.23281l0,16.94069c-3.716731,0 -8.035658,0 -9.482583,0c-6.898625,0.33826 -15.413334,-9.11323 -24.471906,-21.29729c-3.376892,-4.27207 -6.783741,-8.97206 -10.394527,-13.21597c3.610786,-4.2491 7.012753,-8.9437 10.394527,-13.21563c9.058572,-12.16721 17.573281,-21.63569 24.463005,-21.29144l9.491484,-0.00569l0,16.96339l15.163431,-15.23889l15.171566,-15.25061l-15.171566,-15.26694l-15.163431,-15.24458l0,16.95255l-9.486603,0c-14.090318,0.34334 -24.620794,14.91212 -33.835538,26.75256c-9.147617,12.49428 -17.370147,21.90029 -22.138935,21.29164l-27.20393,0l0,27.0628l27.212859,0c4.764691,-0.61462 12.991357,8.79751 22.138092,21.29143c9.210705,11.84644 19.737142,26.40312 33.83147,26.75276l9.482593,0l0,16.95778l0,0l0,0.00001z" id="svg_19"/>
 </g>
</svg>